# xmcd
#
# Track frame offsets: 
#        150
#        31498
#        69745
#        152514
#        181784
#        185835
#        206743
#        267128
#        282692
#
# Disc length: 4284 seconds
#
# Revision: 0
# Processed by: cddbd v1.5.2PL0 Copyright (c) Steve Scherf et al.
# Submitted via: ExactAudioCopy v1.0b3
#
DISCID=8710ba09
DTITLE=Jimi Hendrix and B.B. King - The King's Jam
DYEAR=1968
DGENRE=Blues
TTITLE0=Band Introduction by B.B. King
TTITLE1=Like A Rolling Stone
TTITLE2=Blues Jam No. 1 Part I
TTITLE3=Blues Jam No. 1 Part II
TTITLE4=Band Introduction by B.B. King
TTITLE5=Blues Jam No. 2 Part I
TTITLE6=Blues Jam No. 2 Part II
TTITLE7=Blues Jam No. 3
TTITLE8=It's My Own Fault
EXTD=
EXTT0=
EXTT1=
EXTT2=
EXTT3=
EXTT4=
EXTT5=
EXTT6=
EXTT7=
EXTT8=
PLAYORDER=
